<svg xmlns="http://www.w3.org/2000/svg" width="2012" height="2006" viewBox="0 0 2012 2006"><defs><clipPath id="xh8xa"><path d="M492 150h1036c182.254 0 330 147.746 330 330v1026c0 192.195-155.805 348-348 348H159V483c0-183.91 149.09-333 333-333z"/></clipPath></defs><g><g><g><path fill="#595651" d="M486 0h1030c273.933 0 496 222.067 496 496v1017c0 272.276-220.724 493-493 493H0V486C0 217.59 217.59 0 486 0z"/></g><g><path fill="#fae5e3" d="M492 150h1036c182.254 0 330 147.746 330 330v1026c0 192.195-155.805 348-348 348H159V483c0-183.91 149.09-333 333-333z"/></g><g clip-path="url(#xh8xa)"><path fill="#595651" d="M173.243 1316.557c283.83 0 513.919 230.089 513.919 513.918 0 283.83-230.09 513.919-513.919 513.919-283.83 0-513.918-230.09-513.918-513.919 0-283.83 230.089-513.918 513.918-513.918z"/></g><g clip-path="url(#xh8xa)"><path fill="#e6b6b7" d="M1436.994-43.955c334.67 0 605.974 271.304 605.974 605.974 0 334.67-271.304 605.974-605.974 605.974-334.67 0-605.974-271.304-605.974-605.974 0-334.67 271.303-605.974 605.974-605.974z"/></g><g clip-path="url(#xh8xa)"><path fill="#a7767c" d="M2297.693 814.098c339.762 0 615.194 275.432 615.194 615.194 0 339.762-275.432 615.193-615.194 615.193-339.762 0-615.194-275.431-615.194-615.193s275.432-615.194 615.194-615.194z"/></g><g clip-path="url(#xh8xa)"><path fill="#f8d6d4" d="M583-850.99c321.984 0 583.003 261.242 583.003 583.502 0 322.26-261.019 583.503-583.002 583.503C261.017 316.015-.002 54.772-.002-267.488c0-322.26 261.019-583.503 583.003-583.503z"/></g></g></g></svg>