<svg id="Layer_1" data-name="Layer 1" xmlns="http://www.w3.org/2000/svg" viewBox="0 0 638.32 496.79"><defs><style>.cls-1{fill:#48414d;}.cls-2{fill:#221660;}</style></defs><g id="OBJECTS"><path class="cls-1" d="M578.5,224.44c3.57-3.57,10.72-16.43,2.88-17.86s-29.24,35.66-36.73,30.31,31.73-66.68,15-74.88c-10.2-5-20.9,2.72-31,9.66-11.38,7.78-21.64,14.74-21.39,4.65.12-5,32.11-37,4.65-56.29C496.57,109.38,468.7,125.38,442,141,420.58,153.46,398,169.38,376,155.77,343.36,135.61,351.5,3.81,256.75,0H0V428.45S19.44,507,128.78,495.67s196.9-133.09,210.9-143c20.93-14.88,39.49-8.5,29.77,12.56s5.39,39,34.89,19.54c53.5-35.35,95-185.07,135.88-195.2,9.43-2.33-26.82,65-2.35,63.81,11-.52,36-36.71,38.57-38.56,9.44-6.84.73,9.15.73,9.15Z"/><path class="cls-2" d="M638,160.14a.38.38,0,1,0-.31-.31A.37.37,0,0,0,638,160.14Z"/></g></svg>