<svg id="Layer_1" data-name="Layer 1" xmlns="http://www.w3.org/2000/svg" viewBox="0 0 225.93 313.31"><defs><style>.cls-1{fill:#e6b6b7;}.cls-2{fill:#fff;}.cls-3{fill:#48414d;}.cls-4{fill:#f6f6f6;}</style></defs><g id="OBJECTS"><path class="cls-1" d="M152.81,214.8c7-4.29,24.27-13.52,44.5-9.38,14.84,3,29.8,13,28.49,18.07-1.08,4.22-12.48,1.06-29.87,4.88-29.69,6.53-52.69,28.08-65.17,39.82-13,12.22-14.74,17-20.51,16.77C93.88,284.38,74.9,245,80.31,210c5.26-34.07,34-67.69,67.41-69.8,23-1.46,47.65,11,48,21.65.26,8.95-16.79,12.11-32.9,35.08A99.15,99.15,0,0,0,152.81,214.8Z" transform="translate(0.05 0.05)"/><path class="cls-2" d="M18,234.29c4.66-9.52,16.22-14.48,25.57-13.06,5.8.88,11.15,4.28,10.8,6-.55,2.62-14-1.38-20.45,5.78-4,4.48-3.87,11.78-2.67,12.21,1.82.66,7.29-13.92,9-13.34,2.53.85-2.15,35.5-10.52,36.16C23.3,268.52,10.8,249.05,18,234.29Z" transform="translate(0.05 0.05)"/><path class="cls-3" d="M46.47,106.82v3a29.69,29.69,0,0,0,4.81,14.91c2.12,3.25,6.58,9.33,11.11,8.7s9.74-9.43,12-12.88a14.27,14.27,0,0,1,3.87-4.49c4.45-2.83,6.47,1.57,6.52,5.4.08,5.2-3.17,10.13-6.52,13.84-4.86,5.35-10.89,11-10.65,18.21.37,11.2,16.6,15.64,26,9.48s13.12-17.83,16.24-28.6c4.65-16.06,8.86-34.9-1.2-48.26-5-6.59-12.42-10.54-18.92-15.37-3.68-2.73-16-12.14-10.45-17.12a7.33,7.33,0,0,1,6.85-1.15A21.5,21.5,0,0,1,92.43,56l14.81,10.55a10.67,10.67,0,0,0,4.15,2.1,3.61,3.61,0,0,0,4-1.76,5.37,5.37,0,0,0,.12-2.84c-.63-4.48-3.93-13.7.38-17.14,2.84-2.27,7.57-.77,8.2,3,.32,2.13-.73,4.24-.65,6.39.25,6.74,11.33,7.51,15.29,2s2.94-12.92,2.16-19.62c-1-8.65-1.27-17.77,2.34-25.7S155.29-1.28,163.88.16c7.65,1.29,13.34,8.34,15.2,15.86s.61,15.45-1.1,23c-8,35.3-25.6,67.53-40,100.75a585.5,585.5,0,0,0-42.35,150.4c-1.34,9.5-4.44,21.25-13.88,22.92-7.17,1.28-14-4.89-16-11.87s-.65-14.47.77-21.61L76,232c4.62-23.14,2.07-37.73-14.89-54.38-10-9.87-21.34-18.93-27.29-32-4.62-10.16-11.4-28.59-10.2-39.47.63-5.74,3.49-11.42,9.46-13s11.82,1.3,13.07,7.51A28.68,28.68,0,0,1,46.47,106.82Z" transform="translate(0.05 0.05)"/><path class="cls-2" d="M86.31,234.47a31.78,31.78,0,0,0-8.79-9.29,2.74,2.74,0,0,0-.5-1.13c-4.42-5.9-11.57-7.87-18.46-9.27-3.25-.66-6.46-1.19-9.65-2.12a27.76,27.76,0,0,1-4.3-1.59,12.33,12.33,0,0,1-3.56-2.42,12.09,12.09,0,0,1-2.56-3.83,22,22,0,0,1-1.36-6.2c-.47-4.41-.25-9-1.39-13.28a17.62,17.62,0,0,0-3-6.3,25.45,25.45,0,0,0-6.12-5.21,26.21,26.21,0,0,1-9.49-11.22c-2.54-5.84-2.58-12.42-2.94-18.67Q13.62,133.8,13,123.66c-.09-1.63-2.56-4.17-4.11-2.39C2.38,128.79-1.71,138.68.61,148.7a3.24,3.24,0,0,0,.19.52.81.81,0,0,0-.32.57c.42,12.65,10.8,21.78,15.12,33.07,3.75,9.8,1.87,25.07,13.63,29.68a33.31,33.31,0,0,0,8.38,1.72c2.38.29,4.75.62,7.11,1.07a49.65,49.65,0,0,0,9.64,2.77l1.59.32a75.88,75.88,0,0,1,8.27,3.5c5.58,2.75,11,6.18,15,11a22.8,22.8,0,0,1,4.22,7.4,24.88,24.88,0,0,1,1,9.55c-.24,3.86-.84,7.7-1.31,11.53q-.73,6-1.48,12.06-1.49,12.06-3,24.12c-.06.47,2.36-.29,2.54-.36.59-.23,2-.69,2.12-1.45L88.56,253C89.44,246.58,89.72,240.29,86.31,234.47ZM30.57,208.85a15.28,15.28,0,0,1-5-6.66c-2.23-5.35-2.57-11.26-3.94-16.84-1.68-6.83-5.53-12.64-9.19-18.53s-7-11.88-7.26-18.85c0-.05-.14-.07-.35-.07-1.14-6.5.76-12.84,4.19-18.33.2,3.65.41,7.29.62,10.94.33,5.85.35,11.88,1.75,17.6a31.81,31.81,0,0,0,8,14.55,39.57,39.57,0,0,0,6.36,5.11,12.84,12.84,0,0,1,4.52,4.48c2,3.89,1.9,8.58,2.17,12.84.31,4.73.94,9.44,3.63,13.47A16.07,16.07,0,0,0,39,211.83a1,1,0,0,1-.41-.06,18.75,18.75,0,0,1-8-2.92Z" transform="translate(0.05 0.05)"/><path class="cls-4" d="M-137.93,297.23" transform="translate(0.05 0.05)"/></g></svg>